<svg width="17" height="18" viewBox="0 0 17 18" fill="none" xmlns="http://www.w3.org/2000/svg">
  <g clip-path="url(#clip0_1562_905)">
    <path d="M9.41365 7.62408C9.64543 7.36306 9.83767 7.09827 10.0732 6.87023C10.4194 6.53348 10.8292 6.26912 11.2786 6.0926C11.7281 5.91607 12.2082 5.83094 12.691 5.84217C13.2453 5.83306 13.7984 5.90028 14.3344 6.04195C14.8964 6.19721 15.4057 6.50254 15.8074 6.92518C16.2091 7.34783 16.4882 7.87185 16.6147 8.44105C16.842 9.33894 16.9442 10.2639 16.9182 11.1898C16.9182 13.1432 16.9125 15.0966 16.9182 17.05C16.9182 17.2328 16.8673 17.2809 16.6873 17.279C15.6822 17.2708 14.6771 17.2708 13.6719 17.279C13.4948 17.279 13.4561 17.2253 13.4571 17.0585C13.4627 15.1996 13.4627 13.3407 13.4571 11.4819C13.4678 11.0152 13.4133 10.5492 13.295 10.0977C13.2122 9.71839 12.9907 9.38382 12.6739 9.15946C12.3572 8.93511 11.968 8.83718 11.5828 8.88488C11.3291 8.87119 11.0752 8.90934 10.8367 8.99701C10.5982 9.08468 10.3801 9.22003 10.1956 9.3948C10.0111 9.5696 9.86414 9.78011 9.76379 10.0135C9.66334 10.2469 9.61151 10.4984 9.61151 10.7526C9.5758 11.0417 9.55808 11.3328 9.55874 11.6242C9.55874 13.4316 9.55874 15.2398 9.56345 17.0472C9.56345 17.2272 9.51917 17.2809 9.33449 17.279C8.32057 17.2701 7.30697 17.2701 6.29367 17.279C6.13065 17.279 6.08447 17.2366 6.08447 17.0717C6.08887 13.4909 6.08887 9.91203 6.08447 6.33501C6.08447 6.15785 6.14195 6.11732 6.30968 6.11827C7.2721 6.12518 8.23482 6.12518 9.19786 6.11827C9.37501 6.11827 9.42118 6.17387 9.41742 6.3416C9.40799 6.76941 9.41742 7.19722 9.41742 7.62502" fill="white"/>
    <path d="M3.90026 11.7145C3.90026 13.4851 3.90026 15.2557 3.90026 17.0263C3.90026 17.2232 3.8522 17.2826 3.64866 17.2797C2.64228 17.2684 1.63683 17.2713 0.633278 17.2797C0.472143 17.2797 0.423143 17.2402 0.424086 17.0743C0.429111 13.4892 0.429111 9.90429 0.424086 6.31979C0.424086 6.17185 0.459893 6.11908 0.617259 6.11908C1.63778 6.12568 2.6583 6.12756 3.67881 6.11908C3.87481 6.11908 3.9012 6.19352 3.9012 6.36125C3.89618 8.14661 3.89618 9.93162 3.9012 11.7163" fill="white"/>
    <path d="M4.17717 2.56526C4.17811 2.96293 4.061 3.35192 3.84069 3.68298C3.62038 4.01404 3.30678 4.27227 2.9396 4.42496C2.57242 4.57766 2.16819 4.61795 1.7781 4.54074C1.388 4.46352 1.02959 4.27228 0.74827 3.99122C0.466948 3.71016 0.275364 3.35194 0.197784 2.96192C0.120203 2.57189 0.160115 2.16762 0.312466 1.8003C0.464817 1.43298 0.722752 1.11913 1.0536 0.898508C1.38446 0.677887 1.77334 0.560418 2.171 0.560976C2.70109 0.563682 3.20881 0.775012 3.58426 1.14924C3.95973 1.52346 4.17272 2.03047 4.17717 2.56055" fill="white"/>
  </g>
  <defs>
    <clipPath id="clip0_1562_905">
      <rect width="16.9615" height="17.9038" fill="white" transform="translate(0.0192871 0.0769043)"/>
    </clipPath>
  </defs>
</svg>
