<svg xmlns="http://www.w3.org/2000/svg">
  <path fill-rule="evenodd" clip-rule="evenodd" d="M11.8635 9.09779C16.6643 4.99543 22.8425 2.8668 29.1513 3.14143C35.4602 3.41607 41.43 6.07352 45.8562 10.5775C50.2823 15.0816 52.8352 21.0968 52.9998 27.4095C53.1644 33.7222 50.9283 39.8623 46.7428 44.5908C42.5574 49.3193 36.7341 52.2842 30.4481 52.8872C24.1622 53.4901 17.8815 51.6863 12.8735 47.8396C12.2741 47.3793 11.4151 47.4919 10.9548 48.0913C10.4944 48.6906 10.6071 49.5496 11.2064 50.01C16.7639 54.2787 23.7338 56.2805 30.7095 55.6114C37.6851 54.9423 44.1474 51.652 48.7921 46.4047C53.4368 41.1574 55.9182 34.3435 55.7356 27.3382C55.553 20.3329 52.7199 13.6576 47.8081 8.65935C42.8963 3.66113 36.2714 0.712082 29.2704 0.407314C22.2693 0.102545 15.4132 2.46474 10.0857 7.01723C4.7581 11.5697 1.35569 17.9736 0.565007 24.9365C-0.225675 31.8995 1.65424 38.9032 5.82539 44.5343C6.27521 45.1416 7.13216 45.2692 7.73942 44.8194C8.34669 44.3695 8.47433 43.5126 8.0245 42.9053C4.26577 37.831 2.57174 31.5198 3.28424 25.2453C3.99674 18.9708 7.06274 13.2002 11.8635 9.09779ZM27.64 14.7816C28.3958 14.7816 29.0084 15.3942 29.0084 16.1499V36.669L38.958 26.7316C39.4927 26.1976 40.3591 26.1981 40.8931 26.7328C41.4272 27.2675 41.4266 28.1339 40.8919 28.6679L28.6229 40.922C28.3742 41.1787 28.0257 41.3383 27.64 41.3383C27.4039 41.3383 27.1817 41.2785 26.9878 41.1731C26.9684 41.1626 26.9493 41.1516 26.9305 41.1402C26.9041 41.1242 26.8783 41.1073 26.8532 41.0895C26.8245 41.0694 26.7966 41.0481 26.7696 41.0258C26.7328 40.9954 26.6976 40.9632 26.6642 40.9292L14.4024 28.6673C13.868 28.133 13.868 27.2666 14.4024 26.7322C14.9367 26.1978 15.8031 26.1978 16.3375 26.7322L26.2717 36.6664V16.1499C26.2717 15.3942 26.8843 14.7816 27.64 14.7816Z" fill="#CBFF89"/>
</svg>
