<svg xmlns="http://www.w3.org/2000/svg" fill="none" viewBox="0 0 67 67">
  <circle cx="33.4512" cy="33.4512" r="27.5" fill="#cbff89"/>
  <path fill="#0b301a" d="M49.531 29.0602c-1.0264-2.3648-3.0933-4.2639-4.9807-5.8087-2.1911-1.7947-4.4351-3.0288-6.6697-3.6692-.3355-.095-.6921.0363-.8868.3284-.7449 1.112-2.1419 1.8029-3.6469 1.8029s-2.902-.6909-3.6469-1.8029c-.1959-.2921-.5525-.4246-.888-.3284-2.6076.746-4.9442 2.4786-6.6885 3.9049-2.3061 1.8851-3.8592 3.8018-4.7472 5.8569-.0481.1103-.0844.2874.0083.5067.2416.5666 3.9166 5.2352 4.8644 5.5906.3883.1466.8305.054 1.1343-.2428l.9983-1.0123v12.0926c0 .5912.4809 1.0721 1.0721 1.0721h16.2521c.5912 0 1.0721-.4809 1.0721-1.071v-5.4697l2.4692 2.5618c.115.1197.2686.1795.4223.1795s.2933-.0539.407-.1642c.0556-.0534.1-.1173.1308-.1879.0309-.0706.0474-.1466.0489-.2236.0014-.077-.0124-.1536-.0406-.2253s-.0703-.1371-.1238-.1925l-3.5472-3.6798c-.0542-.0562-.119-.101-.1907-.1318s-.1489-.047-.2269-.0476c-.1548.0011-.3097.061-.4211.1736l-3.5988 3.6304c-.1094.1105-.1705.2599-.1698.4154.0006.1555.063.3044.1733.414.1105.1094.2599.1704.4154.1698.1555-.0007.3044-.063.4139-.1734l2.6651-2.6885v5.539H25.5534V32.7576c0-.2382-.1443-.4528-.3636-.5431-.1077-.0442-.226-.0554-.34-.0322s-.2186.0797-.3005.1624l-1.9355 1.9624c-.2381-.1806-.9079-.8305-2.1818-2.3601-.895-1.0745-1.5988-1.9976-1.8662-2.3929.8293-1.7854 2.2393-3.4757 4.2991-5.1589 1.5988-1.308 3.7137-2.8833 6.0175-3.6094.9877 1.302 2.671 2.1009 4.4622 2.1009 1.7911 0 3.4756-.7989 4.4633-2.1021 1.9976.6147 4.014 1.749 5.9964 3.3736 1.7032 1.3959 3.5589 3.085 4.5255 5.1026-.2698.3672-.9396 1.1859-1.8745 2.2381-1.0064 1.132-1.6258 1.7537-1.9554 2.0516l-1.9425-1.7055c-.0846-.0746-.189-.1231-.3005-.1398-.1116-.0166-.2255-.0007-.3282.0459-.1027.0464-.1899.1215-.251.2161-.0612.0947-.0938.2049-.0939.3176v4.8223c0 .3237.2628.5865.5865.5865.3238 0 .5865-.2628.5865-.5865V33.581l1.3243 1.1636c.0797.0701.1768.1172.2812.1364.1043.0192.2118.0098.3112-.0273.1502-.0563.5502-.2064 2.6369-2.5524.2053-.23 2.0071-2.2628 2.21-2.7414.0903-.2146.0528-.3906.0059-.4997z"/>
</svg>
