<svg width="19" height="19" viewBox="0 0 19 19" fill="none" xmlns="http://www.w3.org/2000/svg">
  <g clip-path="url(#clip0_1562_2162)">
    <mask id="mask0_1562_2162" style="mask-type:luminance" maskUnits="userSpaceOnUse" x="0" y="0" width="19" height="18">
      <path d="M18.5197 0.192261H0.730469V17.934H18.5197V0.192261Z" fill="white"/>
    </mask>
    <g mask="url(#mask0_1562_2162)">
      <path d="M9.62323 2.00911C11.9182 2.00911 12.1902 2.01821 13.0962 2.05914C13.641 2.0655 14.1807 2.1655 14.6916 2.35477C15.0648 2.49263 15.4024 2.71238 15.6795 2.99786C15.9649 3.27498 16.1847 3.61253 16.3226 3.98571C16.5117 4.49669 16.6117 5.03635 16.6182 5.58117C16.6591 6.49079 16.6682 6.76368 16.6682 9.05409C16.6682 11.3445 16.6591 11.621 16.6182 12.527C16.6117 13.0718 16.5117 13.6115 16.3226 14.1225C16.1796 14.4931 15.9607 14.8297 15.6798 15.1106C15.3989 15.3915 15.0623 15.6105 14.6916 15.7534C14.1807 15.9427 13.641 16.0427 13.0962 16.049C12.1866 16.09 11.9137 16.0991 9.62323 16.0991C7.33282 16.0991 7.05629 16.09 6.15031 16.049C5.60547 16.0427 5.06579 15.9427 4.55484 15.7534C4.1842 15.6105 3.84759 15.3915 3.5667 15.1106C3.2858 14.8297 3.06684 14.4931 2.9239 14.1225C2.73465 13.6115 2.63465 13.0718 2.62828 12.527C2.58735 11.6174 2.57824 11.3445 2.57824 9.05409C2.57824 6.76368 2.58735 6.48715 2.62828 5.58117C2.63465 5.03634 2.73465 4.49666 2.9239 3.98571C3.06177 3.61251 3.28152 3.27496 3.567 2.99786C3.84412 2.71241 4.18166 2.49266 4.55484 2.35477C5.06579 2.16551 5.60547 2.06552 6.15031 2.05914C7.05992 2.01821 7.33282 2.00911 9.62323 2.00911ZM9.62323 0.462769C7.28916 0.462769 6.99625 0.472775 6.07572 0.514617C5.36361 0.53039 4.65932 0.666636 3.9927 0.917577C3.41905 1.13336 2.89939 1.47172 2.47 1.90905C2.03266 2.33845 1.6943 2.8581 1.47852 3.43175C1.22851 4.09944 1.0935 4.80468 1.0792 5.5175C1.03736 6.43439 1.02734 6.72729 1.02734 9.065C1.02734 11.4027 1.03736 11.692 1.0792 12.6125C1.0935 13.3253 1.22851 14.0306 1.47852 14.6983C1.69931 15.2691 2.03692 15.7875 2.46972 16.2203C2.90251 16.6531 3.42094 16.9907 3.99179 17.2115C4.65948 17.4615 5.36472 17.5966 6.07754 17.6109C6.99443 17.6527 7.28734 17.6627 9.62505 17.6627C11.9628 17.6627 12.252 17.6527 13.1726 17.6109C13.8854 17.5966 14.5906 17.4615 15.2583 17.2115C15.8292 16.9907 16.3476 16.6531 16.7804 16.2203C17.2132 15.7875 17.5508 15.2691 17.7716 14.6983C18.0216 14.0306 18.1566 13.3253 18.1709 12.6125C18.2128 11.6956 18.2228 11.4027 18.2228 9.065C18.2228 6.72729 18.2128 6.43803 18.1709 5.5175C18.1566 4.80468 18.0216 4.09945 17.7716 3.43175C17.5557 2.85814 17.2174 2.3385 16.7801 1.90905C16.3494 1.47117 15.8282 1.13278 15.2529 0.917577C14.5852 0.667576 13.8799 0.532556 13.1671 0.518256C12.2493 0.472775 11.9573 0.462769 9.62323 0.462769Z" fill="white"/>
      <path d="M9.62343 4.64343C8.75053 4.64343 7.89722 4.90228 7.17143 5.38723C6.44564 5.87219 5.87996 6.56148 5.54592 7.36793C5.21188 8.17439 5.12447 9.06179 5.29477 9.91791C5.46506 10.774 5.88541 11.5604 6.50264 12.1776C7.11988 12.7949 7.90627 13.2152 8.7624 13.3855C9.61853 13.5558 10.5059 13.4684 11.3124 13.1344C12.1189 12.8003 12.8082 12.2346 13.2931 11.5088C13.7781 10.7831 14.0369 9.92979 14.0369 9.05689C14.0369 7.88637 13.5719 6.76379 12.7442 5.9361C11.9166 5.10842 10.794 4.64343 9.62343 4.64343ZM9.62343 11.9203C9.05672 11.9203 8.50275 11.7523 8.03156 11.4374C7.56036 11.1226 7.19311 10.6751 6.97624 10.1516C6.75938 9.62801 6.70263 9.05189 6.81319 8.49608C6.92374 7.94027 7.19664 7.42972 7.59736 7.029C7.99808 6.62829 8.50862 6.35539 9.06444 6.24484C9.62025 6.13428 10.1963 6.19102 10.7199 6.40789C11.2435 6.62475 11.691 6.99201 12.0059 7.4632C12.3207 7.93439 12.4887 8.48837 12.4887 9.05507C12.4887 9.81499 12.1869 10.5438 11.6495 11.0811C11.1122 11.6185 10.3833 11.9203 9.62343 11.9203Z" fill="white"/>
      <path d="M15.2417 4.46999C15.2417 4.674 15.1812 4.87343 15.0678 5.04306C14.9545 5.21269 14.7934 5.3449 14.6049 5.42297C14.4164 5.50105 14.209 5.52147 14.0089 5.48167C13.8088 5.44187 13.625 5.34363 13.4808 5.19937C13.3365 5.05511 13.2383 4.87132 13.1985 4.67122C13.1587 4.47113 13.1791 4.26373 13.2572 4.07525C13.3352 3.88677 13.4674 3.72567 13.6371 3.61232C13.8067 3.49898 14.0061 3.43848 14.2102 3.43848C14.4837 3.43848 14.7461 3.54716 14.9395 3.7406C15.133 3.93405 15.2417 4.19642 15.2417 4.46999Z" fill="white"/>
    </g>
  </g>
  <defs>
    <clipPath id="clip0_1562_2162">
      <rect width="18" height="18" fill="white" transform="translate(0.730469 0.192261)"/>
    </clipPath>
  </defs>
</svg>
